<?xml version="1.0" encoding="utf-8"?>
<!-- Generator: Adobe Illustrator 21.1.0, SVG Export Plug-In . SVG Version: 6.00 Build 0)  -->
<svg version="1.1" id="Layer_1" xmlns="http://www.w3.org/2000/svg" xmlns:xlink="http://www.w3.org/1999/xlink" x="0px" y="0px"
	 viewBox="0 0 52 56" style="enable-background:new 0 0 52 56;" xml:space="preserve">
<style type="text/css">
	.gray{fill:#9E9E9E;}
</style>
<path class="gray" d="M26,1C16.6,1,9,8.6,9,18s7.6,17,17,17s17-7.6,17-17S35.4,1,26,1z M34,24l-2,2l-6-6l-6,6l-2-2l6-6l-6-6l2-2l6,6
	l6-6l2,2l-6,6L34,24z"/>
<path class="gray" d="M11.5,53.3C10.7,53.8,9.7,54,8.4,54c-1.6,0-2.9-0.5-3.9-1.5c-1-1-1.5-2.4-1.5-4c0-1.8,0.6-3.2,1.7-4.3
	s2.5-1.7,4.2-1.7c1.1,0,2,0.2,2.7,0.5v1.8c-0.8-0.4-1.6-0.7-2.5-0.7c-1.2,0-2.2,0.4-2.9,1.2C5.3,46,5,47,5,48.3
	c0,1.2,0.4,2.2,1.1,2.9s1.6,1.1,2.8,1.1c1.1,0,2-0.3,2.8-0.8V53.3z"/>
<path class="gray" d="M19.6,53.8h-1.8v-1.3h0c-0.6,1-1.4,1.4-2.4,1.4c-0.8,0-1.4-0.2-1.8-0.6s-0.7-1-0.7-1.7c0-1.5,0.9-2.4,2.6-2.6
	l2.4-0.3c0-1.1-0.5-1.7-1.6-1.7c-1,0-1.8,0.3-2.6,1v-1.6c0.8-0.5,1.8-0.8,2.9-0.8c2,0,3,1,3,3V53.8z M17.9,49.9l-1.7,0.2
	c-0.5,0.1-0.9,0.2-1.2,0.4c-0.3,0.2-0.4,0.5-0.4,1c0,0.3,0.1,0.6,0.4,0.8s0.6,0.3,1,0.3c0.6,0,1-0.2,1.4-0.6
	c0.4-0.4,0.5-0.9,0.5-1.5V49.9z"/>
<path class="gray" d="M28.9,53.8h-1.8v-4.5c0-1.5-0.5-2.2-1.6-2.2c-0.6,0-1,0.2-1.4,0.6s-0.5,0.9-0.5,1.6v4.6h-1.8v-8h1.8v1.3h0
	c0.6-1,1.5-1.5,2.6-1.5c0.9,0,1.5,0.3,2,0.8s0.7,1.4,0.7,2.4V53.8z"/>
<path class="gray" d="M36.9,53.4c-0.6,0.4-1.4,0.6-2.3,0.6c-1.2,0-2.1-0.4-2.9-1.1s-1.1-1.7-1.1-2.9c0-1.3,0.4-2.4,1.2-3.2
	s1.8-1.2,3.1-1.2c0.7,0,1.4,0.1,1.9,0.4v1.7c-0.6-0.4-1.2-0.6-1.8-0.6c-0.8,0-1.4,0.3-1.9,0.8s-0.7,1.2-0.7,2c0,0.8,0.2,1.5,0.7,2
	s1.1,0.7,1.9,0.7c0.7,0,1.3-0.2,1.8-0.7V53.4z"/>
<path class="gray" d="M45.5,50.3H40c0,0.7,0.2,1.3,0.7,1.7s1,0.6,1.8,0.6c0.9,0,1.6-0.3,2.4-0.8v1.5c-0.7,0.5-1.7,0.7-2.9,0.7
	c-1.2,0-2.1-0.4-2.8-1.1s-1-1.7-1-3.1c0-1.2,0.4-2.3,1.1-3s1.7-1.2,2.7-1.2s1.9,0.4,2.5,1.1s0.9,1.7,0.9,2.9V50.3z M43.7,49
	c0-0.7-0.2-1.2-0.5-1.5S42.5,47,42,47c-0.5,0-1,0.2-1.3,0.6S40.1,48.4,40,49H43.7z"/>
<path class="gray" d="M49,53.8h-1.8V42H49V53.8z"/>
</svg>
